<svg width="27" height="27" viewBox="0 0 27 27" fill="none" xmlns="http://www.w3.org/2000/svg">
<path d="M12.375 0C12.0825 0 11.7945 0.114715 11.5796 0.32959L8.20459 3.70459C7.76471 4.14446 7.76471 4.85666 8.20459 5.29541L11.5796 8.67041C11.9013 8.99216 12.3838 9.08756 12.8057 8.91431C13.2264 8.73993 13.5 8.33062 13.5 7.875V5.625C17.8622 5.625 21.375 9.13783 21.375 13.5C21.375 14.654 21.1219 15.7441 20.6741 16.7366C20.6077 16.872 20.5693 17.0193 20.561 17.1698C20.5527 17.3203 20.5748 17.471 20.6259 17.6128C20.6769 17.7547 20.756 17.8848 20.8583 17.9955C20.9607 18.1062 21.0842 18.1952 21.2217 18.2572C21.3591 18.3192 21.5075 18.3529 21.6583 18.3564C21.809 18.3599 21.9589 18.3331 22.099 18.2776C22.2392 18.222 22.3667 18.1389 22.4741 18.0331C22.5815 17.9272 22.6665 17.8009 22.7241 17.6616C23.2956 16.3951 23.625 14.9852 23.625 13.5C23.625 7.92167 19.0783 3.375 13.5 3.375V1.125C13.5 0.6705 13.2264 0.260068 12.8057 0.0856934C12.6662 0.0283184 12.5201 0 12.375 0ZM5.31738 8.66162C5.09652 8.65974 4.87999 8.72291 4.69478 8.84326C4.50958 8.9636 4.36389 9.1358 4.27588 9.33838C3.70441 10.6049 3.375 12.0148 3.375 13.5C3.375 19.0783 7.92167 23.625 13.5 23.625V25.875C13.5 26.3295 13.7736 26.7399 14.1943 26.9143C14.3338 26.9717 14.4799 27 14.625 27C14.9175 27 15.2055 26.8853 15.4204 26.6704L18.7954 23.2954C19.2353 22.8555 19.2353 22.1445 18.7954 21.7046L15.4204 18.3296C15.0987 18.0078 14.6162 17.9124 14.1943 18.0857C13.7736 18.2601 13.5 18.6705 13.5 19.125V21.375C9.13783 21.375 5.625 17.8622 5.625 13.5C5.625 12.346 5.87815 11.2559 6.32593 10.2634C6.40576 10.0928 6.44146 9.90481 6.42975 9.71677C6.41804 9.52873 6.3593 9.34664 6.25892 9.18721C6.15854 9.02778 6.01972 8.8961 5.85522 8.80427C5.69071 8.71244 5.50578 8.66339 5.31738 8.66162Z" fill="white"/>
</svg>
