<svg width="27" height="46" viewBox="0 0 27 46" fill="none" xmlns="http://www.w3.org/2000/svg">
<g clip-path="url(#clip0_156_371)">
<path d="M11.8103 5.00154L2.28193 11.0069L1.09741 8.99924L10.7826 3.09955L11.8103 5.00154Z" fill="#C04D4D"/>
<path d="M25.7632 27.9487L16.2348 33.9541L2.4213 11.3591L12.1239 5.45941L25.7632 27.9487Z" fill="#314175"/>
<path d="M10.0335 2.48339L0.905792 8.31264C0.905792 8.31264 -1.67227 4.47344 1.82902 1.49718C1.82902 1.49718 6.27096 -2.43008 10.0335 2.48339Z" fill="#F6F299"/>
<path d="M7.38539 13.9496C7.15278 13.5805 6.66823 13.4719 6.30311 13.7071C5.93799 13.9422 5.83056 14.4321 6.06317 14.8013L13.5105 26.6198C13.7431 26.9889 14.2276 27.0975 14.5927 26.8624C14.9579 26.6272 15.0653 26.1373 14.8327 25.7682L7.38539 13.9496Z" fill="#1E1E1E"/>
<path d="M13.0809 10.0083C12.8471 9.64069 12.3628 9.53425 11.9991 9.7706C11.6355 10.0069 11.5302 10.4966 11.764 10.8642L19.2487 22.6352C19.4825 23.0029 19.9668 23.1093 20.3304 22.873C20.6941 22.6366 20.7994 22.147 20.5656 21.7793L13.0809 10.0083Z" fill="#1E1E1E"/>
<path d="M9.87362 10.1072C9.44975 9.43451 8.57007 9.2345 7.9088 9.66041C7.24752 10.0863 7.05506 10.9769 7.47893 11.6495L17.9428 28.2552C18.3666 28.9278 19.2463 29.1279 19.9076 28.7019C20.5688 28.276 20.7613 27.3855 20.3374 26.7128L9.87362 10.1072Z" fill="#1E1E1E"/>
<path d="M16.4961 34.4295L26.0594 28.4594L27 39.5191L16.4961 34.4295Z" fill="#070808"/>
<path d="M24.7181 41.0689C24.1014 41.7342 23.4314 42.3468 22.7148 42.9005C22.3497 43.1837 21.959 43.4313 21.5477 43.6401C21.3325 43.751 21.1042 43.8339 20.8684 43.8867C20.6059 43.9419 20.3332 43.9174 20.0845 43.8162C19.9571 43.7524 19.8437 43.6635 19.751 43.5546C19.6582 43.4457 19.588 43.3191 19.5445 43.1822C19.4702 42.9426 19.4292 42.6936 19.4226 42.4426C19.4109 42.2076 19.4168 41.9722 19.44 41.7381C19.44 41.5092 19.4748 41.2802 19.4748 41.0689C19.4856 40.6437 19.4505 40.2185 19.3703 39.8009C19.3251 39.6215 19.2548 39.4495 19.1613 39.2902C19.0671 39.1758 18.9387 39.0955 18.7955 39.0613C18.6277 39.0324 18.4558 39.0384 18.2903 39.0789L17.7155 39.2902C17.3347 39.4872 16.968 39.7108 16.6181 39.9594C15.8884 40.4688 15.1849 41.0155 14.5103 41.5972C13.8135 42.1784 13.0819 42.7243 12.3329 43.2351C11.5839 43.7458 10.8174 44.2565 10.0335 44.732C9.6329 44.9609 9.23225 45.1723 8.81419 45.366C8.39252 45.5887 7.94877 45.7658 7.49032 45.8943C7.23065 45.9749 6.96066 46.0165 6.68903 46.0176C6.51296 46.0056 6.34111 45.9577 6.18387 45.8767C5.99061 45.7646 5.84723 45.5818 5.78322 45.366C5.73831 45.2058 5.72645 45.0379 5.74838 44.8729C5.75164 44.7351 5.77512 44.5986 5.81806 44.4678C5.88101 44.2246 5.96857 43.9885 6.07935 43.7634C6.26856 43.336 6.48985 42.9239 6.74128 42.5306L7.10709 41.9319L7.19419 41.791L7.24645 41.7381L7.28129 41.6677L7.45548 41.3683C7.68193 40.9985 7.89096 40.5934 8.08258 40.206C8.29304 39.8129 8.47921 39.4071 8.64 38.9908C8.80649 38.6036 8.91792 38.1945 8.97096 37.7756C9.00092 37.6002 8.99499 37.4204 8.95355 37.2473C8.93014 37.1866 8.89258 37.1325 8.84406 37.0895C8.79554 37.0466 8.73748 37.0162 8.67483 37.0008C8.49066 36.9655 8.30159 36.9655 8.11742 37.0008C7.90934 37.0407 7.70528 37.0996 7.50774 37.1769C7.09116 37.3213 6.68392 37.4918 6.28838 37.6876C5.50451 38.0926 4.72064 38.5505 3.97161 39.026L2.82193 39.7481L1.70709 40.4877C2.40387 39.9242 3.10064 39.3606 3.83225 38.8147C4.56387 38.2688 5.3129 37.7756 6.09677 37.3178C6.49479 37.0843 6.90799 36.8784 7.33354 36.7014C7.55254 36.6041 7.77996 36.5274 8.0129 36.4724C8.26899 36.4062 8.53587 36.3942 8.79677 36.4372C8.949 36.4684 9.09206 36.5347 9.21484 36.6309C9.34219 36.7349 9.44362 36.8676 9.51096 37.0184C9.59754 37.2789 9.62726 37.5553 9.59806 37.8285C9.55379 38.3115 9.44237 38.7858 9.26709 39.2374C8.95522 40.1083 8.57061 40.9508 8.11742 41.7557L7.94322 42.0551L7.90838 42.1432L7.85612 42.2136L7.76903 42.3545C7.64709 42.5482 7.52516 42.742 7.42064 42.9357C7.2027 43.3121 7.005 43.7001 6.82838 44.098C6.74343 44.2858 6.67353 44.4801 6.61935 44.6792C6.58588 44.8173 6.57412 44.96 6.58451 45.1018C6.60193 45.1371 6.60193 45.1194 6.60193 45.1371H6.74128C6.91919 45.1382 7.09596 45.1084 7.26387 45.049C7.67169 44.9258 8.06805 44.7667 8.44838 44.5735C8.83161 44.3857 9.21483 44.1743 9.59806 43.9395C11.1356 43.0422 12.6083 42.0358 14.0052 40.928C14.7019 40.3821 15.4161 39.8009 16.2 39.2902C16.5885 39.0302 16.9962 38.8006 17.4194 38.6034C17.6513 38.5087 17.89 38.4321 18.1335 38.3744C18.403 38.3125 18.6828 38.3125 18.9523 38.3744C19.2523 38.4531 19.513 38.6413 19.6839 38.9028C19.8297 39.1272 19.9303 39.3786 19.98 39.6424C20.0579 40.1196 20.0754 40.6049 20.0323 41.0865C20.0148 41.3155 19.9974 41.5444 19.9626 41.7734C19.9279 41.9829 19.9104 42.1949 19.9103 42.4073C19.9103 42.83 19.9974 43.2703 20.2761 43.4112C20.4361 43.4979 20.6218 43.5229 20.7987 43.4816C21.0103 43.4582 21.2165 43.3987 21.4084 43.3055C21.813 43.1317 22.2032 42.9255 22.5755 42.6891L23.6729 41.9142L24.7181 41.0689Z" fill="#C04D4D"/>
</g>
<defs>
<clipPath id="clip0_156_371">
<rect width="27" height="46" fill="white"/>
</clipPath>
</defs>
</svg>
